<svg width="160" height="113" viewBox="0 0 160 113" fill="none" xmlns="http://www.w3.org/2000/svg">
<path d="M156.49 17.8428C160 30.128 160 56.4534 160 56.4534C160 56.4534 160 82.4863 156.49 95.064C154.735 102.084 149.177 107.349 142.45 109.104C129.872 112.322 80.1463 112.322 80.1463 112.322C80.1463 112.322 30.128 112.322 17.5503 109.104C10.8227 107.349 5.26508 102.084 3.51006 95.064C0 82.4863 0 56.4534 0 56.4534C0 56.4534 0 30.128 3.51006 17.8428C5.26508 10.8227 10.8227 5.26508 17.5503 3.51006C30.128 0 80.1463 0 80.1463 0C80.1463 0 129.872 0 142.45 3.51006C149.177 5.26508 154.735 10.8227 156.49 17.8428ZM63.766 80.1463L105.302 56.4534L63.766 32.7605V80.1463Z" fill="white"/>
</svg>
