<svg width="32" height="32" viewBox="0 0 32 32" fill="none" xmlns="http://www.w3.org/2000/svg">
<path d="M27.1276 5.84613C30.7209 11.1817 32.5176 17.1705 31.8643 24.085C31.8643 24.085 31.8643 24.1394 31.8098 24.1394C29.4143 25.9361 26.6921 27.2972 23.8065 28.1683C23.7521 28.2227 23.7521 28.1683 23.6976 28.1683C23.0987 27.2972 22.5543 26.4261 22.0643 25.5005C22.0643 25.4461 22.0643 25.4461 22.0643 25.3916L22.1187 25.3372C22.9898 25.0105 23.8065 24.6294 24.6232 24.1394C24.6232 24.1394 24.6776 24.1394 24.6776 24.085C24.6776 24.0305 24.6776 24.0305 24.6232 23.9761C24.4598 23.8672 24.2965 23.7583 24.1332 23.595C24.0787 23.595 24.0787 23.595 24.0243 23.595C18.8521 25.9905 13.1899 25.9905 7.9632 23.595C7.90876 23.595 7.85431 23.595 7.85431 23.595C7.69098 23.7583 7.52765 23.8672 7.36431 23.9761C7.30987 24.0305 7.30987 24.0305 7.30987 24.085C7.30987 24.1394 7.30987 24.1394 7.36431 24.1394C8.12653 24.6294 8.99764 25.0105 9.86875 25.3372C9.86875 25.3372 9.86875 25.3916 9.9232 25.3916C9.9232 25.4461 9.9232 25.4461 9.9232 25.5005C9.4332 26.4261 8.88875 27.2972 8.28987 28.1683C8.23542 28.1683 8.18098 28.2227 8.18098 28.1683C5.29543 27.2972 2.57321 25.9361 0.17766 24.1394C0.123216 24.1394 0.123216 24.085 0.123216 24.085C-0.421227 18.0961 0.722104 12.0528 4.85987 5.84613C4.85987 5.84613 4.85987 5.84613 4.91432 5.84613C6.9832 4.86613 9.16098 4.2128 11.3932 3.83169C11.4476 3.77725 11.5021 3.83169 11.5021 3.83169C11.8287 4.37614 12.101 4.97502 12.3187 5.51947C14.7687 5.13836 17.2187 5.13836 19.6687 5.51947C19.8865 4.97502 20.1587 4.37614 20.4854 3.83169C20.4854 3.83169 20.5398 3.77725 20.5943 3.83169C22.8265 4.2128 25.0043 4.86613 27.0732 5.84613C27.1276 5.84613 27.1276 5.84613 27.1276 5.84613ZM10.6854 20.4372C12.2643 20.4372 13.571 18.9672 13.571 17.225C13.571 15.4283 12.3187 14.0128 10.6854 14.0128C9.10653 14.0128 7.79987 15.4283 7.79987 17.225C7.79987 18.9672 9.10653 20.4372 10.6854 20.4372ZM21.3021 20.4372C22.9354 20.4372 24.1876 18.9672 24.1876 17.225C24.2421 15.4283 22.9354 14.0128 21.3021 14.0128C19.7232 14.0128 18.471 15.4283 18.471 17.225C18.471 18.9672 19.7232 20.4372 21.3021 20.4372Z" fill="white"/>
</svg>
